<?xml version="1.0" standalone="no"?><svg xmlns="http://www.w3.org/2000/svg" viewBox="0 0 1440 320"><path fill="#1c1c30" fill-opacity="1" d="M0,32L21.8,53.3C43.6,75,87,117,131,133.3C174.5,149,218,139,262,128C305.5,117,349,107,393,128C436.4,149,480,203,524,229.3C567.3,256,611,256,655,229.3C698.2,203,742,149,785,133.3C829.1,117,873,139,916,176C960,213,1004,267,1047,245.3C1090.9,224,1135,128,1178,101.3C1221.8,75,1265,117,1309,112C1352.7,107,1396,53,1418,26.7L1440,0L1440,320L1418.2,320C1396.4,320,1353,320,1309,320C1265.5,320,1222,320,1178,320C1134.5,320,1091,320,1047,320C1003.6,320,960,320,916,320C872.7,320,829,320,785,320C741.8,320,698,320,655,320C610.9,320,567,320,524,320C480,320,436,320,393,320C349.1,320,305,320,262,320C218.2,320,175,320,131,320C87.3,320,44,320,22,320L0,320Z"></path></svg>